<svg width="50" height="45" viewBox="0 0 50 45" fill="none" xmlns="http://www.w3.org/2000/svg">
<path d="M33.5521 0.000835926C26.9895 0.0669758 21.0516 4.0884 19.0074 9.81075C18.5741 11.0231 18.0617 13.3105 18.2695 14.551C18.4029 15.3471 19.7086 15.4882 20.15 14.7949C20.3808 14.433 20.3043 13.3742 20.3646 12.8713C21.4023 4.20259 31.8653 -0.775371 40.1987 3.44697C47.9365 7.36794 48.5978 15.5462 45.0826 22.3655C42.6166 27.1487 37.8931 30.1606 35.5145 35.0724C34.2263 37.7324 34.3915 40.1652 31.3501 41.8411C27.0937 44.1866 21.627 41.7132 21.0489 37.197C20.9812 36.6698 21.1647 35.7737 20.3652 35.5809C19.3918 35.3463 18.9119 35.9372 18.939 36.7708C19.159 43.4872 27.7625 47.035 33.4594 42.7877C36.295 40.6737 36.1535 38.3077 37.5669 35.5298C39.5245 31.6818 42.9957 29.1336 45.4373 25.6257C48.6987 20.9385 50.4681 14.3806 48.1497 9.03454C45.7859 3.58362 39.9604 -0.063432 33.5521 0.000835926ZM42.7459 15.0015C43.2143 14.5978 43.0431 13.5564 42.9618 13.006C42.132 7.41099 35.4373 4.12834 29.863 6.46444C24.4504 8.73254 22.8813 15.0601 25.8178 19.6369C26.0465 19.9938 26.4229 20.3232 26.5603 20.7619C27.4383 23.5666 23.806 25.0023 23.0533 27.3291C22.3865 29.39 23.7268 30.8101 25.7656 31.4154C26.6504 31.6781 28.721 32.1947 28.721 30.7783C28.721 29.6596 27.1391 29.8399 26.2848 29.5641C25.5714 29.3339 24.8938 28.9414 24.9642 28.1546C25.0474 27.2217 27.1303 25.426 27.7713 24.5025C28.7528 23.088 29.0561 21.3964 28.3325 19.8153C27.5926 18.198 26.7634 17.8442 26.5251 15.8033C25.369 5.88666 39.7912 4.66744 41.0096 13.8702C41.0638 14.2777 40.8993 14.4798 41.2141 14.8673C41.5783 15.3166 42.2958 15.389 42.7459 15.0015ZM8.9654 34.4048C8.64184 34.7386 8.35754 34.7885 8.31286 35.3345C8.25465 36.0502 8.94442 36.4464 9.67074 36.271C10.1825 36.1475 11.7956 34.2444 12.1611 33.7615C16.6334 27.8482 16.3491 19.8072 11.5234 14.156C11.2371 13.8209 10.5927 13.0585 10.2448 12.8388C9.50625 12.3727 8.5139 12.9118 8.61273 13.7142C8.67095 14.1885 9.60914 14.9759 9.96655 15.4046C14.8437 21.2573 14.2216 28.9844 8.9654 34.4048ZM6.19278 16.7305C5.24037 15.953 4.10045 16.655 4.44161 17.7519C8.14431 21.3472 8.41643 26.483 4.996 30.3403C4.51472 30.8825 3.65437 31.3667 4.42063 32.1841C5.15643 32.969 6.00595 32.1579 6.52176 31.6219C9.58681 28.4366 10.2955 23.7556 8.44012 19.8684C7.9981 18.9424 7.0071 17.3956 6.19278 16.7305ZM0.917621 20.1541C0.56089 20.2209 0.206865 20.5373 0.139851 20.8717C-0.00297746 21.5855 0.571042 21.8326 0.922358 22.3673C1.82874 23.7463 1.68998 25.328 0.692887 26.624C0.545997 26.8149 0.251542 27.0146 0.133083 27.2311C-0.426045 28.2513 0.895959 29.1311 1.88289 28.2825C3.51086 26.8829 3.93529 24.3684 3.23807 22.479C2.94835 21.6941 2.00203 19.9514 0.917621 20.1541Z" fill="#122D12"/>
</svg>
